<?xml version="1.0" encoding="UTF-8"?>
<svg version="1.1" xmlns="http://www.w3.org/2000/svg" width="287" height="198">
<path d="M0 0 C1.47146484 -0.01160156 1.47146484 -0.01160156 2.97265625 -0.0234375 C9.98443424 -0.00476432 16.90420694 0.32666883 23.1875 3.6875 C26.81257278 7.70447254 29.08439936 12.43540078 31.5 17.25 C32.593125 17.229375 33.68625 17.20875 34.8125 17.1875 C38.5 17.25 38.5 17.25 41.5 18.25 C41.005 20.725 41.005 20.725 40.5 23.25 C39.015 23.745 39.015 23.745 37.5 24.25 C37.7165625 24.76046875 37.933125 25.2709375 38.15625 25.796875 C41.71454552 35.08797998 40.93053201 44.55417196 39.5 54.25 C38.5 55.25 38.5 55.25 34.68359375 55.34765625 C33.10153318 55.34098089 31.51948841 55.32901875 29.9375 55.3125 C29.13119141 55.30798828 28.32488281 55.30347656 27.49414062 55.29882812 C25.49606244 55.28700518 23.49802217 55.26906914 21.5 55.25 C21.5 53.93 21.5 52.61 21.5 51.25 C7.64 51.25 -6.22 51.25 -20.5 51.25 C-20.83 52.57 -21.16 53.89 -21.5 55.25 C-24.31256281 55.27684312 -27.12487241 55.29676188 -29.9375 55.3125 C-30.73994141 55.32087891 -31.54238281 55.32925781 -32.36914062 55.33789062 C-34.41295221 55.3465143 -36.45683902 55.3022815 -38.5 55.25 C-40.55699344 53.19300656 -39.96624213 49.0841109 -40.125 46.25 C-40.16858643 45.4763208 -40.21217285 44.7026416 -40.25708008 43.90551758 C-40.59632274 36.99208623 -40.88298337 30.50506721 -37.5 24.25 C-38.82 23.59 -40.14 22.93 -41.5 22.25 C-41.125 20.3125 -41.125 20.3125 -40.5 18.25 C-38.5 17.25 -38.5 17.25 -35.3125 17.9375 C-31.36046828 17.67715609 -31.36046828 17.67715609 -29.625 14.6875 C-28.42750516 12.54026786 -27.27634074 10.36646109 -26.17578125 8.16796875 C-24.10481972 4.56188887 -22.62100362 2.95029183 -18.64770508 1.63842773 C-12.45531624 0.04609918 -6.36204572 -0.05016068 0 0 Z " fill="#FE2B2B" transform="translate(127.5,5.75)"/>
<path d="M0 0 C6.6 0 13.2 0 20 0 C20 5.94 20 11.88 20 18 C23.96 18 27.92 18 32 18 C32 12.06 32 6.12 32 0 C38.93 0 45.86 0 53 0 C53 13.53 53 27.06 53 41 C46.07 41 39.14 41 32 41 C32 35.06 32 29.12 32 23 C28.04 23 24.08 23 20 23 C20 28.94 20 34.88 20 41 C13.4 41 6.8 41 0 41 C0 27.47 0 13.94 0 0 Z " fill="#3E3E3E" transform="translate(57,65)"/>
<path d="M0 0 C5.85505922 -0.13812722 11.70442091 -0.25743762 17.55981445 -0.32958984 C19.54926757 -0.3596767 21.53858898 -0.40055754 23.52758789 -0.45263672 C26.39502515 -0.52581125 29.26070244 -0.55953679 32.12890625 -0.5859375 C33.01147598 -0.61690521 33.89404572 -0.64787292 34.80335999 -0.67977905 C40.53660366 -0.68287092 43.52470851 0.46953556 47.70591736 4.42123413 C49.79592347 6.97101744 50.13348629 8.72958591 50 12 C48.63889838 16.01524978 47.34578365 19.29150847 44 22 C44.639375 22.763125 45.27875 23.52625 45.9375 24.3125 C49.9749483 29.57341748 49.07520324 34.60772471 49 41 C42.07 41 35.14 41 28 41 C27.67 35.72 27.34 30.44 27 25 C24.69 24.34 22.38 23.68 20 23 C20 28.94 20 34.88 20 41 C13.4 41 6.8 41 0 41 C0 27.47 0 13.94 0 0 Z M20 4 C20 8.95 20 13.9 20 19 C25.7018576 17.59628479 25.7018576 17.59628479 28 15 C28.58369443 11.58461856 28.58369443 11.58461856 28 8 C25.81501244 5.46808501 25.81501244 5.46808501 23 4 C22.01 4 21.02 4 20 4 Z " fill="#3F3F3F" transform="translate(231,65)"/>
<path d="M0 0 C5.87237118 -0.09199537 11.74222757 -0.17158327 17.61474609 -0.21972656 C19.61092618 -0.23980169 21.60704775 -0.26706789 23.60302734 -0.30175781 C26.4776862 -0.35045657 29.3515654 -0.37300986 32.2265625 -0.390625 C33.55815903 -0.42159271 33.55815903 -0.42159271 34.91665649 -0.45318604 C40.6023363 -0.45522999 43.61840216 0.3148665 48 4 C50.25410253 6.74412482 49.99615202 8.23857473 49.9375 11.875 C49.25389248 16.43808018 47.17118387 18.74750372 44 22 C44.639375 22.61875 45.27875 23.2375 45.9375 23.875 C50.5946871 28.67331398 49.06251965 34.62299585 49 41 C42.4 41 35.8 41 29 41 C28.83723958 37.45182292 28.67447917 33.90364583 28.51171875 30.35546875 C28.2524317 27.10271924 28.2524317 27.10271924 26.76953125 25.11328125 C24.62234939 23.61578212 24.62234939 23.61578212 20 23 C20 28.94 20 34.88 20 41 C13.4 41 6.8 41 0 41 C0 27.47 0 13.94 0 0 Z M20 4 C20 8.95 20 13.9 20 19 C26.60343433 17.82703689 26.60343433 17.82703689 28.5 15.1875 C29.14766973 12.35394492 28.96232648 10.74950423 28 8 C26.29118236 5.62419982 26.29118236 5.62419982 24 4 C22.68 4 21.36 4 20 4 Z " fill="#3E3E3E" transform="translate(5,65)"/>
<path d="M0 0 C2.97 0 5.94 0 9 0 C9 9.9 9 19.8 9 30 C18.9 30 28.8 30 39 30 C39 20.1 39 10.2 39 0 C41.97 0 44.94 0 48 0 C48 22.11 48 44.22 48 67 C45.03 67 42.06 67 39 67 C39 55.45 39 43.9 39 32 C29.1 32 19.2 32 9 32 C9 43.55 9 55.1 9 67 C6.03 67 3.06 67 0 67 C0 44.89 0 22.78 0 0 Z " fill="#FE4242" transform="translate(5,111)"/>
<path d="M0 0 C8.333067 7.87011884 9.71166963 16.14315198 10.25 27.3359375 C10.25 37.97974294 8.28840066 47.13656018 0.8125 54.9375 C-6.34734225 61.56977493 -14.89391796 63.74247167 -24.6484375 63.44140625 C-31.86670446 62.35464115 -38.79988288 59.54655685 -43.75 54.125 C-50.7649376 42.3697231 -52.08445141 27.83780565 -48.75 14.5 C-45.892213 6.9900016 -40.78396967 0.82709062 -33.6875 -2.9375 C-22.78547755 -7.62636376 -9.89253402 -6.74490956 0 0 Z M-34 2.125 C-42.35232176 13.02625919 -42.49463506 27.11516796 -41.00390625 40.2109375 C-40.92011719 40.84257812 -40.83632812 41.47421875 -40.75 42.125 C-40.15703125 42.20878906 -39.5640625 42.29257813 -38.953125 42.37890625 C-36.10515282 43.3433791 -35.23547151 44.63897539 -33.5 47.0625 C-32.97921875 47.77277344 -32.4584375 48.48304688 -31.921875 49.21484375 C-30.75 51.125 -30.75 51.125 -30.75 53.125 C-32.25 54.75 -32.25 54.75 -33.75 56.125 C-28.11162266 60.0092155 -24.65994973 61.57811146 -17.75 61.125 C-12.20270172 59.95771137 -8.54859486 57.6916231 -5.06640625 53.22265625 C2.29747817 41.48851401 3.00292514 26.91424256 0.125 13.625 C-1.74279975 7.14937351 -4.92398931 2.55850921 -10 -1.8125 C-18.64556337 -5.1528313 -27.37214406 -4.76797018 -34 2.125 Z " fill="#FF2A2A" transform="translate(110.75,115.875)"/>
<path d="M0 0 C1.58206057 0.00667536 3.16410534 0.0186375 4.74609375 0.03515625 C5.55240234 0.03966797 6.35871094 0.04417969 7.18945312 0.04882812 C9.18753131 0.06065107 11.18557158 0.07858711 13.18359375 0.09765625 C17.86109923 9.02163429 22.05143514 18.13190809 26.12109375 27.34765625 C26.61778564 28.46712646 27.11447754 29.58659668 27.6262207 30.73999023 C28.31784302 32.31695679 28.31784302 32.31695679 29.0234375 33.92578125 C29.43972412 34.87356445 29.85601074 35.82134766 30.28491211 36.79785156 C31.18359375 39.09765625 31.18359375 39.09765625 31.18359375 41.09765625 C23.59359375 41.09765625 16.00359375 41.09765625 8.18359375 41.09765625 C3.18359375 30.34765625 3.18359375 30.34765625 3.18359375 28.09765625 C-1.10640625 28.09765625 -5.39640625 28.09765625 -9.81640625 28.09765625 C-10.14640625 29.74765625 -10.47640625 31.39765625 -10.81640625 33.09765625 C-11.72798324 35.80404802 -12.77855596 38.43534464 -13.81640625 41.09765625 C-15.46640625 41.09765625 -17.11640625 41.09765625 -18.81640625 41.09765625 C-18.17929705 36.09312443 -16.72519254 31.77485652 -14.91015625 27.109375 C-14.62539429 26.36557083 -14.34063232 25.62176666 -14.04724121 24.85542297 C-13.44806911 23.29378091 -12.84617421 21.73318109 -12.24169922 20.17358398 C-11.31350562 17.77766896 -10.39438244 15.37842121 -9.4765625 12.97851562 C-8.8924531 11.45943305 -8.30783572 9.94054568 -7.72265625 8.421875 C-7.44659546 7.70215012 -7.17053467 6.98242523 -6.8861084 6.2408905 C-4.50570727 0.11529445 -4.50570727 0.11529445 0 0 Z M-2.81640625 16.09765625 C-3.70432256 17.23884705 -4.55256663 18.41111731 -5.37890625 19.59765625 C-5.83394531 20.24734375 -6.28898438 20.89703125 -6.7578125 21.56640625 C-7.10714844 22.07171875 -7.45648438 22.57703125 -7.81640625 23.09765625 C-6.82640625 23.42765625 -5.83640625 23.75765625 -4.81640625 24.09765625 C-2.62602202 22.72597387 -2.62602202 22.72597387 -0.81640625 21.09765625 C-1.14640625 19.44765625 -1.47640625 17.79765625 -1.81640625 16.09765625 C-2.14640625 16.09765625 -2.47640625 16.09765625 -2.81640625 16.09765625 Z " fill="#444444" transform="translate(197.81640625,64.90234375)"/>
<path d="M0 0 C0.72896484 -0.01611328 1.45792969 -0.03222656 2.20898438 -0.04882812 C8.15022684 -0.05417578 12.27705591 1.32722706 16.75 5.4375 C19.02662997 9.31620291 19.24433663 12.87940069 19.4375 17.3125 C17.53515625 17.05859375 17.53515625 17.05859375 15.4375 16.3125 C14.49609375 14.53515625 14.49609375 14.53515625 13.875 12.375 C12.85072562 8.86956407 12.69246907 8.48247938 9.4375 6.3125 C6.4375 5.72916667 6.4375 5.72916667 3.4375 6.3125 C-1.29037026 12.18158032 -0.99007413 19.1150022 -0.5625 26.3125 C-0.08987376 28.78709964 0.59169989 30.9243585 1.4375 33.3125 C1.7675 34.3025 2.0975 35.2925 2.4375 36.3125 C7.55121757 36.51726158 7.55121757 36.51726158 12.4375 35.3125 C13.5750213 33.23215706 13.5750213 33.23215706 14.1875 30.75 C14.42984375 29.92371094 14.6721875 29.09742187 14.921875 28.24609375 C15.09203125 27.60800781 15.2621875 26.96992187 15.4375 26.3125 C17.0875 25.9825 18.7375 25.6525 20.4375 25.3125 C20.00266436 30.74794554 18.90522 34.07417555 15.4375 38.3125 C8.75920275 43.15426551 1.11080157 43.07863816 -6.84765625 42.00390625 C-12.93705163 40.67808413 -17.081519 38.23377265 -20.875 33.3125 C-24.24605562 27.31951224 -24.19477874 21.06835501 -23.5625 14.3125 C-22.08425799 9.56374327 -19.58886293 5.30351246 -15.5625 2.3125 C-10.27915973 0.46931958 -5.5721029 -0.0247649 0 0 Z " fill="#434343" transform="translate(160.5625,64.6875)"/>
<path d="M0 0 C2.97 0 5.94 0 9 0 C9.01981934 1.37663818 9.03963867 2.75327637 9.06005859 4.17163086 C9.13649434 9.30999128 9.2251518 14.44808247 9.31738281 19.58618164 C9.35551631 21.80422628 9.39039561 24.02232946 9.421875 26.24047852 C9.46786647 29.44047889 9.52580329 32.64008158 9.5859375 35.83984375 C9.59748871 36.82145981 9.60903992 37.80307587 9.62094116 38.81443787 C9.79930982 47.25539788 10.30124607 55.35145374 16 62 C20.78927067 65.34135163 25.34328776 65.82453772 31 65 C36.285291 63.57922285 39.18684648 61.29141723 41.9375 56.5625 C44.35085944 51.85849431 45.10616506 47.37325162 45.20532227 42.11791992 C45.2352401 40.70702339 45.2352401 40.70702339 45.26576233 39.2676239 C45.29083107 37.7642321 45.29083107 37.7642321 45.31640625 36.23046875 C45.33718735 35.19432938 45.35796844 34.15819 45.37937927 33.09065247 C45.4446213 29.78966735 45.50364179 26.48860451 45.5625 23.1875 C45.60570932 20.94595559 45.64932438 18.70441897 45.69335938 16.46289062 C45.80027667 10.97534193 45.90208962 5.48771639 46 0 C46.66 0 47.32 0 48 0 C48.07644383 6.6710674 48.12876442 13.34202063 48.16479492 20.01342773 C48.17982508 22.28007224 48.20025482 24.54668794 48.22631836 26.81323242 C48.26295588 30.08259213 48.2797846 33.35156527 48.29296875 36.62109375 C48.30845261 37.62458359 48.32393646 38.62807343 48.33988953 39.66197205 C48.3421032 49.04367731 46.50181073 56.42955045 39.953125 63.3359375 C35.29815713 67.30197012 30.16493126 68.49787509 24.07421875 68.22265625 C16.16322291 67.37345331 10.45835214 65.55441748 4.75 59.6875 C-0.48696979 51.64501067 -0.15223854 41.31013245 -0.09765625 32.03125 C-0.0962413 31.11033569 -0.09482635 30.18942139 -0.09336853 29.24060059 C-0.08781407 26.32703266 -0.07527025 23.41354432 -0.0625 20.5 C-0.05747911 18.51302195 -0.05291723 16.52604269 -0.04882812 14.5390625 C-0.0378596 9.69267812 -0.02062683 4.84635251 0 0 Z " fill="#FF2727" transform="translate(130,111)"/>
<path d="M0 0 C1.22589844 -0.0309375 1.22589844 -0.0309375 2.4765625 -0.0625 C8.45302583 -0.10032572 13.332985 1.03719907 18.875 3.25 C15.51167303 4.19545136 13.47774082 4.1353848 10.0625 3.3125 C3.25140482 1.84441937 -2.53581982 1.63919276 -9.125 4.25 C-12.25894542 6.98215754 -13.39552867 9.17776832 -13.6875 13.25 C-13.7970727 16.44694457 -13.09021797 17.29148547 -10.9765625 19.8125 C-8.03916477 22.32337148 -5.47735121 23.73230496 -1.9375 25.25 C-0.79796875 25.75660156 0.3415625 26.26320312 1.515625 26.78515625 C3.58845292 27.68900563 5.66135409 28.59268709 7.734375 29.49609375 C13.39217441 32.11068287 17.46441544 34.93905282 20.875 40.25 C22.9579751 46.49892531 22.98054498 53.82630523 20.25 59.8125 C14.52975983 65.6832728 9.94494146 67.35050075 1.93408203 67.49072266 C-6.71271906 67.52642994 -13.65491738 67.23005508 -21.125 62.25 C-21.125 61.59 -21.125 60.93 -21.125 60.25 C-20.073125 60.683125 -20.073125 60.683125 -19 61.125 C-18.05125 61.49625 -17.1025 61.8675 -16.125 62.25 C-14.8565625 62.7759375 -14.8565625 62.7759375 -13.5625 63.3125 C-5.29879396 65.56623801 3.12652163 66.48539707 10.875 62.25 C13.91424598 59.51467861 14.73789444 57.7527204 15.8125 53.8125 C15.88600421 49.62275996 15.18849744 47.72024616 12.875 44.25 C7.97284619 39.65954383 1.97166218 37.37868324 -4.08789062 34.69335938 C-10.40732433 31.81089831 -15.51955049 29.13980911 -19 22.875 C-20.5821479 17.77696786 -20.84683113 14.1495556 -18.9375 9.125 C-13.73153606 0.8672641 -9.04308321 0.05547904 0 0 Z " fill="#FF3232" transform="translate(208.125,110.75)"/>
<path d="M0 0 C1.08925781 -0.01160156 2.17851562 -0.02320313 3.30078125 -0.03515625 C10.54924 -0.00886196 17.28406454 0.24839608 22.75 5.5625 C24.92472425 9.05759255 26.74521407 12.65566306 28.5 16.375 C27.76168945 16.3042627 27.02337891 16.23352539 26.26269531 16.16064453 C17.6533813 15.40954063 9.12100979 15.21998284 0.48730469 15.24462891 C-1.76113519 15.25002673 -4.00937833 15.24462724 -6.2578125 15.23828125 C-13.40064747 15.2353282 -20.41409427 15.36501796 -27.5 16.375 C-27.17393381 11.15794096 -24.29414065 6.81636477 -20.5 3.375 C-13.72191775 -0.01789669 -7.48581442 -0.07973057 0 0 Z " fill="#FEFAFA" transform="translate(127.5,8.625)"/>
<path d="M0 0 C12.54 0 25.08 0 38 0 C38 0.33 38 0.66 38 1 C28.1 1 18.2 1 8 1 C8 10.24 8 19.48 8 29 C17.24 29 26.48 29 36 29 C36 29.66 36 30.32 36 31 C26.76 31 17.52 31 8 31 C8 42.55 8 54.1 8 66 C18.89 66 29.78 66 41 66 C41 66.33 41 66.66 41 67 C27.47 67 13.94 67 0 67 C0 44.89 0 22.78 0 0 Z " fill="#FF1616" transform="translate(240,111)"/>
<path d="M0 0 C-1.06316399 2.39211899 -2.10176879 4.11194567 -3.875 6.0625 C-12.0310804 17.33708173 -11.24442001 31.69268853 -11 45 C-9.515 44.505 -9.515 44.505 -8 44 C-6.63353852 45.59370671 -5.28212834 47.20032982 -3.9375 48.8125 C-3.18339844 49.70582031 -2.42929688 50.59914062 -1.65234375 51.51953125 C-1.10707031 52.33808594 -0.56179687 53.15664062 0 54 C-1 57 -1 57 -3 59 C-2.01 59.99 -1.02 60.98 0 62 C-0.33 62.66 -0.66 63.32 -1 64 C-6.39916452 63.36480417 -10.1927852 61.21931128 -13.64453125 56.98046875 C-21.44745197 45.83615132 -21.23460082 32.93792543 -19.60546875 19.82421875 C-17.75925286 12.3559777 -12.72396367 5.65085887 -6.4921875 1.21484375 C-4 0 -4 0 0 0 Z " fill="#FE2A2A" transform="translate(81,113)"/>
<path d="M0 0 C2.64 0 5.28 0 8 0 C8 22.11 8 44.22 8 67 C5.36 67 2.72 67 0 67 C0 44.89 0 22.78 0 0 Z " fill="#FF1B1B" transform="translate(5,111)"/>
<path d="M0 0 C1.47146484 -0.01160156 1.47146484 -0.01160156 2.97265625 -0.0234375 C10.02058561 -0.00466805 16.96008725 0.3191385 23.25 3.75 C26.58515256 7.45572506 30.5 13.09164107 30.5 18.25 C28.65234375 18.0234375 28.65234375 18.0234375 26.5 17.25 C25.19140625 15.2890625 25.19140625 15.2890625 24.0625 12.875 C22.07378477 9.03177732 20.6344375 6.94617949 16.5 5.25 C11.22017074 3.64060971 5.71832717 4.02511287 0.25 4 C-0.85730469 3.979375 -1.96460938 3.95875 -3.10546875 3.9375 C-9.61418667 3.90654296 -14.6727935 4.23638749 -20.5 7.25 C-22.58580387 9.30813612 -22.58580387 9.30813612 -23.875 11.75 C-24.33648437 12.5234375 -24.79796875 13.296875 -25.2734375 14.09375 C-25.67820312 14.8053125 -26.08296875 15.516875 -26.5 16.25 C-28.5 19.25 -28.5 19.25 -31.5 20.25 C-29.63194885 13.62690956 -26.75036095 5.78237011 -20.5 2.25 C-13.78507747 0.00963035 -7.01211034 -0.05528602 0 0 Z " fill="#FE5353" transform="translate(127.5,5.75)"/>
<path d="M0 0 C0.66 0 1.32 0 2 0 C2.07644383 6.6710674 2.12876442 13.34202063 2.16479492 20.01342773 C2.17982508 22.28007224 2.20025482 24.54668794 2.22631836 26.81323242 C2.26295588 30.08259213 2.2797846 33.35156527 2.29296875 36.62109375 C2.30845261 37.62458359 2.32393646 38.62807343 2.33988953 39.66197205 C2.3421032 49.04367731 0.50181073 56.42955045 -6.046875 63.3359375 C-11.44283528 67.93329566 -17.15133033 68.43483617 -24 68 C-26.35226091 67.73219041 -28.66319351 67.38946775 -31 67 C-27.5925677 64.90686301 -25.19448544 64.88996589 -21.25 65.125 C-15.63349995 65.18656943 -11.34266974 64.77973107 -7 61 C-2.62378212 55.13586804 -0.93175438 49.38298206 -0.79467773 42.11791992 C-0.77473251 41.17732224 -0.75478729 40.23672455 -0.73423767 39.2676239 C-0.70916893 37.7642321 -0.70916893 37.7642321 -0.68359375 36.23046875 C-0.66281265 35.19432938 -0.64203156 34.15819 -0.62062073 33.09065247 C-0.5553787 29.78966735 -0.49635821 26.48860451 -0.4375 23.1875 C-0.39429068 20.94595559 -0.35067562 18.70441897 -0.30664062 16.46289062 C-0.19972333 10.97534193 -0.09791038 5.48771639 0 0 Z " fill="#FF6B6B" transform="translate(176,111)"/>
<path d="M0 0 C1.4540625 0.0309375 1.4540625 0.0309375 2.9375 0.0625 C2.6075 0.7225 2.2775 1.3825 1.9375 2.0625 C0.9475 2.0625 -0.0425 2.0625 -1.0625 2.0625 C-1.0625 2.7225 -1.0625 3.3825 -1.0625 4.0625 C-0.0725 4.0625 0.9175 4.0625 1.9375 4.0625 C1.9375 4.7225 1.9375 5.3825 1.9375 6.0625 C0.9475 6.0625 -0.0425 6.0625 -1.0625 6.0625 C-1.0625 6.7225 -1.0625 7.3825 -1.0625 8.0625 C-0.134375 7.876875 0.79375 7.69125 1.75 7.5 C4.9375 7.0625 4.9375 7.0625 7.9375 8.0625 C7.9375 7.4025 7.9375 6.7425 7.9375 6.0625 C6.6175 5.7325 5.2975 5.4025 3.9375 5.0625 C4.2675 3.4125 4.5975 1.7625 4.9375 0.0625 C9.2275 0.0625 13.5175 0.0625 17.9375 0.0625 C17.9375 0.7225 17.9375 1.3825 17.9375 2.0625 C16.9475 2.0625 15.9575 2.0625 14.9375 2.0625 C14.9375 4.7025 14.9375 7.3425 14.9375 10.0625 C14.2775 10.0625 13.6175 10.0625 12.9375 10.0625 C12.9375 7.4225 12.9375 4.7825 12.9375 2.0625 C10.9575 2.3925 8.9775 2.7225 6.9375 3.0625 C7.9275 3.7225 8.9175 4.3825 9.9375 5.0625 C9.6075 6.7125 9.2775 8.3625 8.9375 10.0625 C4.9775 10.0625 1.0175 10.0625 -3.0625 10.0625 C-3.94140625 3.12890625 -3.94140625 3.12890625 -4.0625 1.0625 C-3.0625 0.0625 -3.0625 0.0625 0 0 Z " fill="#9B9B9B" transform="translate(59.0625,186.9375)"/>
<path d="M0 0 C0.78375 0.04125 1.5675 0.0825 2.375 0.125 C2.375 0.785 2.375 1.445 2.375 2.125 C1.055 2.455 -0.265 2.785 -1.625 3.125 C-1.625 4.445 -1.625 5.765 -1.625 7.125 C-0.305 7.455 1.015 7.785 2.375 8.125 C3.365 5.485 4.355 2.845 5.375 0.125 C6.365 0.125 7.355 0.125 8.375 0.125 C10.80357143 6.41071429 10.80357143 6.41071429 9.375 10.125 C9.045 9.135 8.715 8.145 8.375 7.125 C7.385 7.125 6.395 7.125 5.375 7.125 C5.045 8.115 4.715 9.105 4.375 10.125 C1 10.25 1 10.25 -2.625 10.125 C-4.625 8.125 -4.625 8.125 -4.875 5.125 C-4.55416156 1.2749387 -3.94115238 0.18767392 0 0 Z " fill="#8D8D8D" transform="translate(84.625,186.875)"/>
<path d="M0 0 C6.44541485 6.26637555 6.44541485 6.26637555 9 10 C8 13 8 13 5.9375 14.1875 C5.298125 14.455625 4.65875 14.72375 4 15 C3.17886823 13.60922699 2.36847505 12.21211107 1.5625 10.8125 C1.11003906 10.03519531 0.65757813 9.25789062 0.19140625 8.45703125 C-1.02391499 5.95068023 -1.57626575 3.74209635 -2 1 C-1.34 0.67 -0.68 0.34 0 0 Z " fill="#F4EDED" transform="translate(72,157)"/>
<path d="M0 0 C3.125 0.375 3.125 0.375 6 1 C6.79953138 4.28696233 7.09658936 5.71023192 6 9 C3.125 9.625 3.125 9.625 0 10 C-2 8 -2 8 -2.25 5 C-2 2 -2 2 0 0 Z " fill="#848484" transform="translate(162,187)"/>
<path d="M0 0 C0.66 0 1.32 0 2 0 C2.33 0.66 2.66 1.32 3 2 C4.32 1.34 5.64 0.68 7 0 C7.33 0.99 7.66 1.98 8 3 C8.33 2.01 8.66 1.02 9 0 C9.66 0 10.32 0 11 0 C10.67 2.97 10.34 5.94 10 9 C9.01 9.33 8.02 9.66 7 10 C6.67 9.01 6.34 8.02 6 7 C5.01 8.485 5.01 8.485 4 10 C3.34 10 2.68 10 2 10 C1.34 6.7 0.68 3.4 0 0 Z " fill="#969696" transform="translate(106,187)"/>
<path d="M0 0 C1.98 0 3.96 0 6 0 C7.125 3.3125 7.125 3.3125 8 7 C7.01 8.485 7.01 8.485 6 10 C2.875 10.1875 2.875 10.1875 0 10 C0 6.7 0 3.4 0 0 Z " fill="#A2A2A2" transform="translate(47,187)"/>
<path d="M0 0 C5.61 0 11.22 0 17 0 C17 1.32 17 2.64 17 4 C11.39 4 5.78 4 0 4 C0 2.68 0 1.36 0 0 Z " fill="#FFFFFF" transform="translate(119,48)"/>
<path d="M0 0 C1.65 0 3.3 0 5 0 C7 2 7 2 7.25 5 C7 8 7 8 5 10 C3.35 10 1.7 10 0 10 C0 6.7 0 3.4 0 0 Z " fill="#858585" transform="translate(207,187)"/>
<path d="M0 0 C1.65 0 3.3 0 5 0 C6.83691257 3.78187881 7.15837626 5.94568308 6 10 C4.02 10 2.04 10 0 10 C0 6.7 0 3.4 0 0 Z " fill="#888888" transform="translate(190,187)"/>
<path d="M0 0 C2.5625 0.1875 2.5625 0.1875 4.5625 2.1875 C4.75 4.75 4.75 4.75 4.5625 7.1875 C3.5625 8.1875 3.5625 8.1875 0.625 8.375 C-2.4375 8.1875 -2.4375 8.1875 -4.4375 6.1875 C-3.71780303 0.28598485 -3.71780303 0.28598485 0 0 Z " fill="#FFF4F4" transform="translate(155.4375,34.8125)"/>
<path d="M0 0 C2.5 0.25 2.5 0.25 4.5 2.25 C3.94444444 6.80555556 3.94444444 6.80555556 2.5 8.25 C-0.5 8.375 -0.5 8.375 -3.5 8.25 C-4.5 7.25 -4.5 7.25 -4.6875 4.8125 C-4.42807033 1.26696114 -3.53871738 0.35387174 0 0 Z " fill="#FFF3F3" transform="translate(99.5,34.75)"/>
<path d="M0 0 C1.98 0 3.96 0 6 0 C6.77842938 3.40562852 7.09978121 6.50765756 7 10 C6.01 9.67 5.02 9.34 4 9 C3.67 8.34 3.34 7.68 3 7 C2.67 7.99 2.34 8.98 2 10 C1.34 10 0.68 10 0 10 C0 6.7 0 3.4 0 0 Z " fill="#AEAEAE" transform="translate(96,187)"/>
<path d="M0 0 C1.65 0 3.3 0 5 0 C6.0625 1.8125 6.0625 1.8125 7 4 C6.67 4.99 6.34 5.98 6 7 C6.33 7.99 6.66 8.98 7 10 C6.01 9.67 5.02 9.34 4 9 C3.67 8.34 3.34 7.68 3 7 C2.67 7.99 2.34 8.98 2 10 C1.34 10 0.68 10 0 10 C0 6.7 0 3.4 0 0 Z " fill="#929292" transform="translate(179,187)"/>
<path d="M0 0 C3 1 3 1 4 3 C4.99 2.01 5.98 1.02 7 0 C7 3.3 7 6.6 7 10 C6.34 10 5.68 10 5 10 C4.34 8.68 3.68 7.36 3 6 C2.67 7.32 2.34 8.64 2 10 C1.34 10 0.68 10 0 10 C0 6.7 0 3.4 0 0 Z " fill="#8F8F8F" transform="translate(142,187)"/>
<path d="M0 0 C1.2065625 0.0309375 1.2065625 0.0309375 2.4375 0.0625 C2.7675 0.7225 3.0975 1.3825 3.4375 2.0625 C1.7875 2.3925 0.1375 2.7225 -1.5625 3.0625 C-1.5625 4.3825 -1.5625 5.7025 -1.5625 7.0625 C-0.5725 7.3925 0.4175 7.7225 1.4375 8.0625 C1.4375 7.4025 1.4375 6.7425 1.4375 6.0625 C0.7775 6.0625 0.1175 6.0625 -0.5625 6.0625 C-0.5625 5.4025 -0.5625 4.7425 -0.5625 4.0625 C0.7575 4.0625 2.0775 4.0625 3.4375 4.0625 C3.480221 5.72861905 3.47813832 7.39632885 3.4375 9.0625 C2.4375 10.0625 2.4375 10.0625 0 10.3125 C-0.845625 10.23 -1.69125 10.1475 -2.5625 10.0625 C-4.5625 7.0625 -4.5625 7.0625 -4.25 3.9375 C-3.32783333 0.08116667 -3.32783333 0.08116667 0 0 Z " fill="#909090" transform="translate(219.5625,186.9375)"/>
<path d="M0 0 C0.66 0 1.32 0 2 0 C2 1.32 2 2.64 2 4 C3.32 4 4.64 4 6 4 C6 2.68 6 1.36 6 0 C6.66 0 7.32 0 8 0 C8 3.3 8 6.6 8 10 C7.34 10 6.68 10 6 10 C6 8.68 6 7.36 6 6 C4.68 6 3.36 6 2 6 C2 7.32 2 8.64 2 10 C1.34 10 0.68 10 0 10 C0 6.7 0 3.4 0 0 Z " fill="#919191" transform="translate(129,187)"/>
<path d="M0 0 C1.22589844 -0.0309375 1.22589844 -0.0309375 2.4765625 -0.0625 C8.45302583 -0.10032572 13.332985 1.03719907 18.875 3.25 C15.51167303 4.19545136 13.47774082 4.1353848 10.0625 3.3125 C4.52949943 2.1117902 -0.26286877 1.9396448 -5.875 2.875 C-9.125 3.25 -9.125 3.25 -12.125 1.25 C-8.05236081 -0.1075464 -4.26602786 0.02617195 0 0 Z " fill="#FF6464" transform="translate(208.125,110.75)"/>
<path d="M0 0 C-3.85508264 0.91304589 -7.05278482 0.94755421 -10.9375 0.4375 C-15.55095776 -0.120861 -18.66235173 0.39695607 -23 2 C-23 1.34 -23 0.68 -23 0 C-23.66 -0.33 -24.32 -0.66 -25 -1 C-16.70564405 -3.17704354 -7.76815866 -4.4079784 0 0 Z " fill="#FF6B6B" transform="translate(104,113)"/>
<path d="M0 0 C1.98 0 3.96 0 6 0 C6 0.66 6 1.32 6 2 C4.68 2 3.36 2 2 2 C2 2.66 2 3.32 2 4 C3.32 4 4.64 4 6 4 C6 4.66 6 5.32 6 6 C4.68 6 3.36 6 2 6 C2 6.66 2 7.32 2 8 C3.32 8 4.64 8 6 8 C6 8.66 6 9.32 6 10 C4.02 10 2.04 10 0 10 C0 6.7 0 3.4 0 0 Z " fill="#929292" transform="translate(224,187)"/>
<path d="M0 0 C0.66 0 1.32 0 2 0 C2 2.64 2 5.28 2 8 C2.99 8 3.98 8 5 8 C5 5.36 5 2.72 5 0 C5.66 0 6.32 0 7 0 C7.02689216 1.47906892 7.04634621 2.95827483 7.0625 4.4375 C7.07410156 5.26121094 7.08570313 6.08492187 7.09765625 6.93359375 C7 9 7 9 6 10 C3.5 10.125 3.5 10.125 1 10 C0 9 0 9 -0.09765625 6.93359375 C-0.08605469 6.10988281 -0.07445312 5.28617188 -0.0625 4.4375 C-0.05347656 3.61121094 -0.04445312 2.78492188 -0.03515625 1.93359375 C-0.02355469 1.29550781 -0.01195312 0.65742188 0 0 Z " fill="#8E8E8E" transform="translate(198,187)"/>
<path d="M0 0 C-0.33 0.99 -0.66 1.98 -1 3 C-8.88347142 6.73427594 -15.51934123 6.41344313 -24 5 C-20.57620494 2.8949394 -18.0927379 2.86562751 -14.125 3.0625 C-8.74704357 3.17399422 -4.76814055 0 0 0 Z " fill="#FF7C7C" transform="translate(169,173)"/>
<path d="M0 0 C0.66 0 1.32 0 2 0 C2 2.64 2 5.28 2 8 C2.99 8 3.98 8 5 8 C5 5.36 5 2.72 5 0 C5.66 0 6.32 0 7 0 C7.125 7.75 7.125 7.75 6 10 C4.33388095 10.042721 2.66617115 10.04063832 1 10 C0 9 0 9 -0.09765625 6.93359375 C-0.08605469 6.10988281 -0.07445312 5.28617188 -0.0625 4.4375 C-0.05347656 3.61121094 -0.04445312 2.78492188 -0.03515625 1.93359375 C-0.02355469 1.29550781 -0.01195312 0.65742188 0 0 Z " fill="#8F8F8F" transform="translate(170,187)"/>
<path d="M0 0 C2.04190981 0.14238837 4.08352045 0.28907028 6.125 0.4375 C7.83042969 0.55931641 7.83042969 0.55931641 9.5703125 0.68359375 C12.7540478 0.97730965 15.85510907 1.43124313 19 2 C19 2.33 19 2.66 19 3 C12.76552084 4.03907986 6.13111842 5.04370614 0 3 C0 2.01 0 1.02 0 0 Z " fill="#FF7A7A" transform="translate(80,175)"/>
<path d="M0 0 C3.25516428 3.16474305 6.32008793 6.32752791 9 10 C9 10.66 9 11.32 9 12 C6.34723083 11.61855607 5.18169057 11.18209887 3.26171875 9.2578125 C2.74222656 8.55398437 2.22273438 7.85015625 1.6875 7.125 C0.88892578 6.07699219 0.88892578 6.07699219 0.07421875 5.0078125 C-0.28027344 4.34523437 -0.63476562 3.68265625 -1 3 C-0.67 2.01 -0.34 1.02 0 0 Z " fill="#F1F1F1" transform="translate(77,154)"/>
<path d="M0 0 C2.31 0 4.62 0 7 0 C7 0.66 7 1.32 7 2 C6.34 2 5.68 2 5 2 C5 4.31 5 6.62 5 9 C4.01 9 3.02 9 2 9 C2 6.69 2 4.38 2 2 C1.34 2 0.68 2 0 2 C0 1.34 0 0.68 0 0 Z " fill="#9F9F9F" transform="translate(231,187)"/>
<path d="M0 0 C1.16180951 3.48542854 0.8772131 3.97230669 -0.6875 7.125 C-1.02136719 7.82882813 -1.35523437 8.53265625 -1.69921875 9.2578125 C-3 11 -3 11 -5.14453125 11.7421875 C-5.75683594 11.82726563 -6.36914062 11.91234375 -7 12 C-4.03846154 2.69230769 -4.03846154 2.69230769 0 0 Z " fill="#FE4B4B" transform="translate(103,14)"/>
<path d="M0 0 C0.66 0 1.32 0 2 0 C2.66 0.66 3.32 1.32 4 2 C4.33 1.34 4.66 0.68 5 0 C5.66 0 6.32 0 7 0 C6.01 3.3 5.02 6.6 4 10 C3.34 10 2.68 10 2 10 C1.34 6.7 0.68 3.4 0 0 Z " fill="#909090" transform="translate(153,187)"/>
<path d="M0 0 C1.32 0.66 2.64 1.32 4 2 C3.67 3.65 3.34 5.3 3 7 C1.68 7 0.36 7 -1 7 C-1.04254356 5.00045254 -1.04080783 2.99958364 -1 1 C-0.67 0.67 -0.34 0.34 0 0 Z " fill="#F4F4F4" transform="translate(163,188)"/>
<path d="M0 0 C2.31 0 4.62 0 7 0 C7 0.66 7 1.32 7 2 C6.34 2 5.68 2 5 2 C5 4.64 5 7.28 5 10 C4.34 10 3.68 10 3 10 C3 7.36 3 4.72 3 2 C2.01 2 1.02 2 0 2 C0 1.34 0 0.68 0 0 Z " fill="#8F8F8F" transform="translate(121,187)"/>
<path d="M0 0 C1.4540625 0.0309375 1.4540625 0.0309375 2.9375 0.0625 C2.6075 0.7225 2.2775 1.3825 1.9375 2.0625 C0.9475 2.0625 -0.0425 2.0625 -1.0625 2.0625 C-1.0625 2.7225 -1.0625 3.3825 -1.0625 4.0625 C-0.0725 4.3925 0.9175 4.7225 1.9375 5.0625 C0.6175 5.0625 -0.7025 5.0625 -2.0625 5.0625 C-2.3925 6.3825 -2.7225 7.7025 -3.0625 9.0625 C-3.94140625 2.91015625 -3.94140625 2.91015625 -4.0625 1.0625 C-3.0625 0.0625 -3.0625 0.0625 0 0 Z " fill="#8A8A8A" transform="translate(59.0625,186.9375)"/>
<path d="M0 0 C-3.74235319 2.44989101 -7.44225419 2.23086143 -11.75 2.125 C-12.44738281 2.11597656 -13.14476562 2.10695312 -13.86328125 2.09765625 C-15.57566958 2.07419888 -17.28788004 2.03833104 -19 2 C-19 1.67 -19 1.34 -19 1 C-16.96044851 0.63384906 -14.91821752 0.28260721 -12.875 -0.0625 C-11.73804688 -0.25972656 -10.60109375 -0.45695313 -9.4296875 -0.66015625 C-6.0246108 -0.99756134 -3.32821869 -0.72330588 0 0 Z " fill="#FF5555" transform="translate(220,176)"/>
<path d="M0 0 C0.66 0.33 1.32 0.66 2 1 C0.41641358 4.16717283 -0.45263699 5.73268318 -3.6875 7.3125 C-4.450625 7.539375 -5.21375 7.76625 -6 8 C-4.73058503 4.08597051 -3.48832306 2.20927127 0 0 Z " fill="#FE5E5E" transform="translate(107,8)"/>
<path d="M0 0 C1.32 0.33 2.64 0.66 4 1 C3.34 1 2.68 1 2 1 C2 2.32 2 3.64 2 5 C2.66 5 3.32 5 4 5 C3.34 6.65 2.68 8.3 2 10 C1.34 10 0.68 10 0 10 C0 6.7 0 3.4 0 0 Z " fill="#858585" transform="translate(96,187)"/>
<path d="M0 0 C0.33 0 0.66 0 1 0 C1 3.3 1 6.6 1 10 C0.34 10 -0.32 10 -1 10 C-1.66 8.35 -2.32 6.7 -3 5 C-2.34 5 -1.68 5 -1 5 C-0.67 3.35 -0.34 1.7 0 0 Z " fill="#838383" transform="translate(148,187)"/>
<path d="M0 0 C0.928125 0.0825 1.85625 0.165 2.8125 0.25 C2.4825 1.24 2.1525 2.23 1.8125 3.25 C-0.8275 3.58 -3.4675 3.91 -6.1875 4.25 C-4.36434338 1.00883268 -3.82500054 0.30000004 0 0 Z " fill="#FE4848" transform="translate(113.1875,6.75)"/>
<path d="M0 0 C0.99 0 1.98 0 3 0 C3.33 1.65 3.66 3.3 4 5 C2.68 5.33 1.36 5.66 0 6 C-1 3 -1 3 0 0 Z " fill="#9B9B9B" transform="translate(90,187)"/>
<path d="M0 0 C0.66 0 1.32 0 2 0 C1.67 2.97 1.34 5.94 1 9 C0.01 9.33 -0.98 9.66 -2 10 C-2 8.68 -2 7.36 -2 6 C-1.34 6 -0.68 6 0 6 C0 4.02 0 2.04 0 0 Z " fill="#898989" transform="translate(115,187)"/>
<path d="M0 0 C1.98 0.495 1.98 0.495 4 1 C4.33 2.32 4.66 3.64 5 5 C3.02 5 1.04 5 -1 5 C-0.67 3.35 -0.34 1.7 0 0 Z " fill="#C2C2C2" transform="translate(191,192)"/>
<path d="M0 0 C0.66 0 1.32 0 2 0 C2 3.3 2 6.6 2 10 C1.34 10 0.68 10 0 10 C0 6.7 0 3.4 0 0 Z " fill="#919191" transform="translate(138,187)"/>
<path d="M0 0 C0.66 0 1.32 0 2 0 C2 3.3 2 6.6 2 10 C1.34 10 0.68 10 0 10 C0 6.7 0 3.4 0 0 Z " fill="#919191" transform="translate(118,187)"/>
<path d="M0 0 C0.99 0 1.98 0 3 0 C3 1.98 3 3.96 3 6 C2.01 6 1.02 6 0 6 C0 4.02 0 2.04 0 0 Z " fill="#FDFDFD" transform="translate(209,189)"/>
<path d="M0 0 C-2.33214148 1.20628008 -4.49642139 2.1654738 -7 3 C-7 2.34 -7 1.68 -7 1 C-7.66 0.67 -8.32 0.34 -9 0 C-5.52176885 -1.15941038 -3.54104422 -0.70820884 0 0 Z " fill="#FF7E7E" transform="translate(88,112)"/>
<path d="M0 0 C0.66 0 1.32 0 2 0 C1.67 0.99 1.34 1.98 1 3 C0.34 2.34 -0.32 1.68 -1 1 C-0.67 0.67 -0.34 0.34 0 0 Z " fill="#F1F1F1" transform="translate(74,150)"/>
</svg>
